<svg width="19" height="18" viewBox="0 0 19 18" fill="none" xmlns="http://www.w3.org/2000/svg">
<path fill-rule="evenodd" clip-rule="evenodd" d="M0 2.11765C0 0.948106 0.948106 0 2.11765 0C2.67929 0 3.21793 0.223109 3.61506 0.620247C4.0122 1.01738 4.23531 1.55602 4.23531 2.11765C4.23531 3.2872 3.2872 4.23531 2.11765 4.23531C0.948106 4.23531 0 3.2872 0 2.11765ZM18.5295 11.0223C18.566 8.72986 17.0021 6.72098 14.7707 6.19408C13.2754 5.87209 11.7167 6.29432 10.5883 7.32703V6.88232C10.5883 6.58993 10.3513 6.3529 10.0589 6.3529H7.41186C7.11947 6.3529 6.88245 6.58993 6.88245 6.88232V17.4706C6.88245 17.763 7.11947 18 7.41186 18H10.0589C10.3513 18 10.5883 17.763 10.5883 17.4706V11.4988C10.5622 10.4354 11.3033 9.50681 12.346 9.29644C12.9668 9.18927 13.6032 9.36411 14.0821 9.77345C14.561 10.1828 14.8328 10.7841 14.8236 11.4141V17.4706C14.8236 17.763 15.0607 18 15.3531 18H18.0001C18.2925 18 18.5295 17.763 18.5295 17.4706V11.0223ZM4.23529 6.88232V17.4706C4.23529 17.763 3.99826 18 3.70588 18H1.05881C0.766423 18 0.529396 17.763 0.529396 17.4706V6.88232C0.529396 6.58993 0.766423 6.3529 1.05881 6.3529H3.70588C3.99826 6.3529 4.23529 6.58993 4.23529 6.88232Z" fill="#707070"/>
</svg>
