<svg width="20" height="20" viewBox="0 0 20 20" fill="none" xmlns="http://www.w3.org/2000/svg">
<path fill-rule="evenodd" clip-rule="evenodd" d="M15.2082 13.6935L19.483 17.9744C19.674 18.1867 19.6645 18.5118 19.4617 18.7128L18.7136 19.4619C18.6132 19.5632 18.4767 19.6202 18.3342 19.6202C18.1917 19.6202 18.0551 19.5632 17.9548 19.4619L13.6799 15.1811C13.5617 15.0626 13.4544 14.9337 13.3593 14.7958L12.5578 13.7256C11.2316 14.7861 9.58466 15.3636 7.88749 15.3631C4.39024 15.3752 1.35126 12.9594 0.56972 9.5458C-0.211823 6.13223 1.47265 2.63193 4.62589 1.11721C7.77912 -0.397524 11.5596 0.477565 13.7291 3.2244C15.8986 5.97123 15.8782 9.85671 13.6799 12.5805L14.7486 13.319C14.9155 13.4259 15.0697 13.5516 15.2082 13.6935ZM2.5441 7.87136C2.5441 10.8266 4.9365 13.2224 7.88767 13.2224C9.30487 13.2224 10.664 12.6586 11.6661 11.6551C12.6683 10.6516 13.2312 9.29054 13.2312 7.87136C13.2312 4.91608 10.8388 2.52034 7.88767 2.52034C4.9365 2.52034 2.5441 4.91608 2.5441 7.87136Z" fill="black"/>
<path d="M19.483 17.9744L19.7655 17.7205L19.7588 17.7131L19.7518 17.706L19.483 17.9744ZM15.2082 13.6935L14.9364 13.9587L14.9395 13.9619L15.2082 13.6935ZM19.4617 18.7128L19.1944 18.443L19.193 18.4445L19.4617 18.7128ZM18.7136 19.4619L18.4449 19.1936L18.4438 19.1947L18.7136 19.4619ZM17.9548 19.4619L18.2246 19.1947L18.2235 19.1936L17.9548 19.4619ZM13.6799 15.1811L13.4111 15.4493L13.4112 15.4495L13.6799 15.1811ZM13.3593 14.7958L13.6719 14.5802L13.6677 14.5741L13.6633 14.5682L13.3593 14.7958ZM12.5578 13.7256L12.8617 13.498L12.6267 13.1843L12.3206 13.4291L12.5578 13.7256ZM7.88749 15.3631L7.8876 14.9833L7.88617 14.9833L7.88749 15.3631ZM0.56972 9.5458L0.199552 9.63055L0.56972 9.5458ZM4.62589 1.11721L4.46145 0.774905L4.62589 1.11721ZM13.7291 3.2244L13.4311 3.45977L13.7291 3.2244ZM13.6799 12.5805L13.3844 12.342L13.1275 12.6604L13.4641 12.8929L13.6799 12.5805ZM14.7486 13.319L14.5326 13.6316L14.5437 13.6387L14.7486 13.319ZM11.6661 11.6551L11.9349 11.9234L11.6661 11.6551ZM19.7518 17.706L15.4769 13.4252L14.9395 13.9619L19.2143 18.2427L19.7518 17.706ZM19.7289 18.9826C20.0757 18.6391 20.0918 18.0835 19.7655 17.7205L19.2006 18.2282C19.2561 18.29 19.2534 18.3846 19.1944 18.443L19.7289 18.9826ZM18.9823 19.7303L19.7304 18.9811L19.193 18.4445L18.4449 19.1936L18.9823 19.7303ZM18.3342 20C18.5781 20 18.8118 19.9024 18.9834 19.7292L18.4438 19.1947C18.4147 19.2241 18.3752 19.2405 18.3342 19.2405V20ZM17.685 19.7292C17.8566 19.9024 18.0903 20 18.3342 20V19.2405C18.2931 19.2405 18.2537 19.2241 18.2246 19.1947L17.685 19.7292ZM13.4112 15.4495L17.6861 19.7303L18.2235 19.1936L13.9486 14.9128L13.4112 15.4495ZM13.0467 15.0115C13.1548 15.1681 13.2767 15.3147 13.4111 15.4493L13.9487 14.9129C13.8467 14.8106 13.754 14.6992 13.6719 14.5802L13.0467 15.0115ZM12.2538 13.9533L13.0554 15.0235L13.6633 14.5682L12.8617 13.498L12.2538 13.9533ZM7.88738 15.7428C9.67084 15.7433 11.4014 15.1366 12.7949 14.0222L12.3206 13.4291C11.0617 14.4357 9.49848 14.9838 7.8876 14.9833L7.88738 15.7428ZM0.199552 9.63055C1.02065 13.2169 4.21365 15.7556 7.88881 15.7428L7.88617 14.9833C4.56684 14.9949 1.68188 12.7019 0.939889 9.46105L0.199552 9.63055ZM4.46145 0.774905C1.14806 2.36657 -0.621523 6.04431 0.199552 9.63055L0.939889 9.46105C0.197876 6.22014 1.79724 2.8973 4.79032 1.45951L4.46145 0.774905ZM14.0271 2.98902C11.7475 0.102865 7.775 -0.816836 4.46145 0.774905L4.79032 1.45951C7.78323 0.0217876 11.3716 0.852266 13.4311 3.45977L14.0271 2.98902ZM13.9754 12.819C16.2851 9.9572 16.3065 5.87501 14.0271 2.98902L13.4311 3.45977C15.4907 6.06744 15.4713 9.75622 13.3844 12.342L13.9754 12.819ZM14.9645 13.0065L13.8958 12.2681L13.4641 12.8929L14.5328 13.6314L14.9645 13.0065ZM15.48 13.4284C15.3214 13.2658 15.1448 13.1218 14.9536 12.9993L14.5437 13.6387C14.6863 13.7301 14.818 13.8374 14.9364 13.9587L15.48 13.4284ZM7.88767 12.8426C5.14672 12.8426 2.92384 10.6174 2.92384 7.87136H2.16435C2.16435 11.0359 4.72627 13.6021 7.88767 13.6021V12.8426ZM11.3974 11.3868C10.4665 12.319 9.20399 12.8426 7.88767 12.8426V13.6021C9.40576 13.6021 10.8616 12.9982 11.9349 11.9234L11.3974 11.3868ZM12.8515 7.87136C12.8515 9.19 12.3284 10.4545 11.3974 11.3868L11.9349 11.9234C13.0081 10.8487 13.611 9.39108 13.611 7.87136H12.8515ZM7.88767 2.90009C10.6286 2.90009 12.8515 5.1253 12.8515 7.87136H13.611C13.611 4.70685 11.0491 2.1406 7.88767 2.1406V2.90009ZM2.92384 7.87136C2.92384 5.1253 5.14672 2.90009 7.88767 2.90009V2.1406C4.72627 2.1406 2.16435 4.70685 2.16435 7.87136H2.92384Z" fill="white"/>
</svg>
